<svg height='300px' width='300px'  fill="#C3C3C3" xmlns="http://www.w3.org/2000/svg" xmlns:xlink="http://www.w3.org/1999/xlink" version="1.1" x="0px" y="0px" viewBox="0 0 100 100" enable-background="new 0 0 100 100" xml:space="preserve"><g display="none"><path display="inline" fill="#C3C3C3" d="M42.462,58.309c0,2.688-1.445,5.041-3.602,6.318c-2.154-1.277-3.597-3.629-3.597-6.318   c0-2.686,1.443-5.036,3.597-6.315C41.017,53.273,42.462,55.623,42.462,58.309z M59.907,51.994   c-2.153,1.279-3.598,3.629-3.598,6.315c0,2.688,1.445,5.041,3.598,6.318c2.156-1.277,3.602-3.629,3.602-6.318   C63.509,55.623,62.063,53.273,59.907,51.994z M89.106,57.231c0,16.806-13.673,30.479-30.481,30.479   c-2.934,0-5.829-0.416-8.612-1.237c-2.784,0.822-5.679,1.237-8.613,1.237c-16.814,0-30.493-13.673-30.493-30.479   c0-15.224,11.216-27.877,25.818-30.133c-3.06-3.214-4.56-7.71-3.961-12.172l0.215-1.599l1.509-0.578   c1.7-0.652,3.483-0.983,5.307-0.983c3.352,0,6.513,1.101,9.146,3.185c1.427,1.13,2.606,2.506,3.512,4.034   c3.265-3.447,7.404-5.519,11.546-5.519v5.441c-4.029,0-7.389,2.503-9.521,6.386c0.049,0.573,0.063,1.15,0.045,1.73   c1.352-0.184,2.72-0.284,4.101-0.284C75.434,26.74,89.106,40.418,89.106,57.231z M38.086,17.364   c0.138,2.654,1.409,5.176,3.525,6.85c1.784,1.41,4.014,2.094,6.233,1.991c0.287-0.703,0.6-1.386,0.943-2.045   c-0.509-1.924-1.624-3.675-3.225-4.942C43.45,17.544,40.714,16.883,38.086,17.364z M41.401,82.27c1.555,0,3.09-0.159,4.599-0.439   V35.692c0-1.031,0.067-2.042,0.185-3.031c-1.563-0.306-3.161-0.479-4.784-0.479c-13.814,0-25.052,11.237-25.052,25.05   C16.349,71.038,27.587,82.27,41.401,82.27z M83.665,57.231c0-13.813-11.232-25.05-25.04-25.05c-2.212,0-4.381,0.304-6.473,0.871   C52.061,33.915,52,34.792,52,35.692v45.67c2.148,0.591,4.369,0.907,6.625,0.907C72.433,82.27,83.665,71.038,83.665,57.231z"></path></g><g display="none"><path display="inline" fill="#C3C3C3" d="M57.816,22.851c2.237-3.362,5.477-5.528,9.184-5.528v-5.441   c-6.17,0-11.503,3.854-14.686,9.624c-0.991-2.825-2.757-5.372-5.168-7.28c-2.859-2.262-6.292-3.458-9.931-3.458   c-1.978,0-3.918,0.359-5.765,1.068l-1.506,0.579l-0.215,1.599c-0.598,4.439,0.723,8.911,3.507,12.315   C22.93,32.246,16.45,43.212,16.45,55.301c0,18.422,14.994,33.408,33.422,33.408c18.422,0,33.406-14.986,33.406-33.408   C83.278,39.774,72.559,26.435,57.816,22.851z M43.769,18.494c2.475,1.958,3.932,4.931,4.015,8.036   c-0.712,0.149-1.439,0.224-2.176,0.224c-2.403,0-4.673-0.791-6.563-2.286c-2.469-1.955-3.925-4.927-4.013-8.033   C38.076,15.799,41.303,16.54,43.769,18.494z M49.872,83.269c-15.429,0-27.981-12.546-27.981-27.967   c0-10.8,6.175-20.533,15.832-25.196c2.396,1.354,5.121,2.089,7.884,2.089c1.247,0,2.474-0.159,3.674-0.441   c-0.061,0.74-0.092,1.49-0.092,2.247h5.441c0-2.136,0.311-4.192,0.866-6.094c12.873,2.62,22.341,14.041,22.341,27.395   C77.837,70.722,65.293,83.269,49.872,83.269z"></path></g><g display="none"><path display="inline" fill="#C3C3C3" d="M68.384,41.484c0.024-0.396,0.037-0.798,0.037-1.207c0-8.112-5.373-15.117-12.749-17.487   c1.812-2.039,4.22-3.311,6.962-3.311v-5.441c-4.805,0-9.549,3.072-12.582,7.684c-0.879-2.184-2.313-4.144-4.209-5.644   c-3.74-2.962-8.989-3.749-13.434-2.046l-1.506,0.578l-0.215,1.6c-0.64,4.761,1.29,9.567,5.039,12.561   c-2.605,3.239-4.055,7.274-4.055,11.507c0,0.41,0.013,0.813,0.037,1.209c-6.216,5.354-9.751,13.023-9.751,21.274   c0,15.485,12.601,28.083,28.094,28.083c15.484,0,28.082-12.598,28.082-28.083C78.134,54.497,74.598,46.828,68.384,41.484z    M42.466,20.343c1.828,1.446,2.947,3.601,3.119,5.882c-2.262,0.362-4.611-0.242-6.437-1.685c-1.824-1.444-2.941-3.598-3.117-5.879   C38.294,18.301,40.644,18.899,42.466,20.343z M50.052,85.402c-12.491,0-22.653-10.157-22.653-22.642   c0-7.07,3.22-13.611,8.837-17.947l1.279-0.988l-0.256-1.598c-0.097-0.602-0.146-1.258-0.146-1.951c0-3.375,1.308-6.575,3.629-8.982   c1.15,0.309,2.34,0.474,3.539,0.474c0.856,0,1.703-0.079,2.535-0.236c-0.017,0.329-0.048,0.655-0.048,0.988h5.44   c0-1.693,0.264-3.327,0.741-4.836c5.754,1.32,10.032,6.515,10.032,12.591c0,0.692-0.048,1.349-0.146,1.951l-0.258,1.6l1.283,0.988   c5.614,4.323,8.834,10.864,8.834,17.945C72.693,75.245,62.536,85.402,50.052,85.402z"></path></g><g display="none"><path display="inline" fill="#C3C3C3" d="M79.27,26.983l0.687-1.806c0-1.598-1.89-3.521-1.89-3.521v0   c-0.312-0.313-0.602-0.59-0.934-0.849l-0.652-0.379c-2.864-1.161-5.944-1.75-9.155-1.75c-0.094,0-0.177,0.006-0.268,0.008V11.13   l-2.82-2.716l-1.241-0.062c-0.757-0.05-1.214-0.079-1.814-0.079c-4.664,0-9.321,1.413-13.096,3.914   c-3.782-2.533-8.275-3.914-12.886-3.914c-0.605,0-1.046,0.029-1.822,0.081l-0.892,0.062l-2.429,2.715v7.567   c-0.271-0.013-0.55-0.02-0.846-0.02c-3.238,0-6.448,0.603-9.279,1.744l-0.653,0.376c-0.333,0.259-0.646,0.544-0.962,0.857   c-0.018,0.018-1.91,1.93-1.91,3.52l0.686,1.804l14.079,15.852c-4.922,3.607-8.114,9.358-8.114,16.009v14.963   c0,11.251,9.096,20.056,20.343,20.056h8.168c11.248,0,20.489-8.805,20.489-20.056V58.839c0-6.394-2.99-11.968-7.632-15.594   l0.657-0.292L79.27,26.983z M38.94,44.761c-0.116,0.201-0.245,0.393-0.345,0.605c-0.064-0.138-0.141-0.268-0.213-0.401   C38.565,44.891,38.754,44.829,38.94,44.761z M44.674,56.196c-2.753,0.566-4.934,2.294-6.078,4.723   c-1.283-2.725-3.87-4.573-7.111-4.882c0.492-3.31,3.062-5.551,6.588-5.551C41.651,50.486,44.241,52.8,44.674,56.196z    M44.674,71.918c-2.753,0.568-4.934,2.294-6.078,4.723c-1.283-2.726-3.87-4.573-7.111-4.881c0.492-3.311,3.062-5.551,6.588-5.551   C41.651,66.209,44.241,68.522,44.674,71.918z M40.069,64.128c0.376-3.475,2.988-5.856,6.616-5.856c3.577,0,6.165,2.309,6.604,5.698   c-3.248,0.304-5.843,2.154-7.127,4.883C45.015,66.421,42.83,64.691,40.069,64.128z M54.251,66.209c3.58,0,6.169,2.313,6.603,5.709   c-2.755,0.568-4.934,2.294-6.076,4.723c-1.287-2.726-3.873-4.573-7.115-4.881C48.157,68.449,50.725,66.209,54.251,66.209z    M47.663,56.037c0.494-3.31,3.062-5.551,6.588-5.551c3.58,0,6.169,2.314,6.603,5.71c-2.755,0.566-4.934,2.294-6.076,4.723   C53.491,58.193,50.905,56.345,47.663,56.037z M54.778,45.366c-0.234-0.496-0.525-0.951-0.844-1.384   c0.508,0.062,1.007,0.15,1.498,0.262C55.19,44.601,54.965,44.97,54.778,45.366z M53.289,48.249   c-3.248,0.304-5.843,2.153-7.127,4.882c-1.147-2.432-3.332-4.162-6.093-4.725c0.204-1.888,1.086-3.435,2.415-4.47   c0.505-0.051,1.017-0.078,1.535-0.078h1.36h5.407C52.138,44.864,53.048,46.382,53.289,48.249z M61.059,19.538   c-1.785,0.473-3.549,1.168-5.273,2.093c-0.974-2.202-2.111-4.07-3.462-5.674c2.617-1.43,5.74-2.228,8.735-2.244V19.538z    M46.277,17.684l0.329,0.22c0.016,0.014,0.026,0.022,0.045,0.038c0.55,0.479,1.062,1.005,1.542,1.579   c0.058,0.068,0.113,0.138,0.169,0.208c0.156,0.193,0.308,0.394,0.457,0.598c0.102,0.141,0.204,0.281,0.303,0.428   c0.079,0.116,0.155,0.237,0.232,0.356c0.7,1.094,1.325,2.335,1.887,3.761c-1.116,0.944-2.136,1.971-3.049,3.08   c-1.424-1.733-3.074-3.253-4.938-4.537c-0.075-0.06-0.16-0.111-0.239-0.166l-0.131-0.18l-0.068-0.154   c-0.941-0.623-1.895-1.168-2.854-1.649c-0.026-0.014-0.054-0.026-0.079-0.04c-0.136-0.067-0.27-0.139-0.404-0.203   c-0.948-0.475-1.926-0.87-3.005-1.188c-0.471-0.15-0.942-0.29-1.416-0.406v-5.715C39.059,13.731,43.162,15.139,46.277,17.684z    M29.213,24.122c0.86,0,1.559,0.085,2.699,0.223l0.065,0.086c2.471,0.506,5.373,1.71,7.394,3.046l0.398,0.245l0.318,0.224   c1.945,1.325,3.591,3.083,4.919,5.034c-0.284,0.601-0.551,1.226-0.795,1.876c-0.281,0.651-0.533,1.373-0.755,2.305   c-0.157,0.56-0.294,1.126-0.418,1.697h-8.501L22.761,25.385C24.755,24.693,26.967,24.122,29.213,24.122z M36.395,45.963   c0.356,0.685,0.606,1.448,0.713,2.286c-2.632,0.247-4.819,1.52-6.245,3.442C32.153,49.315,34.077,47.341,36.395,45.963z    M29.059,58.821c0-0.135,0.017-0.266,0.021-0.399c0.456-0.089,0.928-0.149,1.428-0.149c3.575,0,6.163,2.309,6.602,5.698   c-3.248,0.304-5.84,2.154-7.127,4.883c-0.253-0.537-0.572-1.025-0.923-1.487V58.821z M29.071,74.145   c0.458-0.09,0.933-0.151,1.435-0.151c3.575,0,6.163,2.308,6.602,5.699c-2.209,0.205-4.1,1.14-5.493,2.57   C30.045,79.939,29.121,77.148,29.071,74.145z M41.941,88.697c-3.488-0.486-6.586-2.169-8.871-4.629   c1.18-1.333,2.912-2.138,5.002-2.138c3.579,0,6.169,2.314,6.602,5.71C43.678,87.845,42.763,88.208,41.941,88.697z M40.069,79.85   c0.376-3.476,2.988-5.856,6.616-5.856c3.577,0,6.165,2.308,6.604,5.699c-3.248,0.303-5.843,2.153-7.127,4.883   C45.015,82.144,42.83,80.413,40.069,79.85z M52.098,88.858h-0.415c-1.156-0.746-2.512-1.233-4.02-1.377   c0.494-3.311,3.062-5.552,6.588-5.552c3.066,0,5.393,1.705,6.274,4.325C58.125,87.896,55.225,88.858,52.098,88.858z M65.078,81.314   c-1.169,0.83-2.111,1.936-2.735,3.261c-1.148-2.432-3.331-4.163-6.094-4.726c0.376-3.476,2.985-5.856,6.619-5.856   c1.616,0,3.019,0.482,4.119,1.316C66.783,77.482,66.11,79.513,65.078,81.314z M67.059,72.697c-0.97-0.488-2.04-0.827-3.215-0.938   c0.313-2.117,1.49-3.777,3.215-4.707V72.697z M67.059,64.551c-2.104,0.786-3.77,2.294-4.716,4.303   c-1.148-2.432-3.331-4.162-6.094-4.725c0.376-3.475,2.985-5.856,6.619-5.856c1.646,0,3.077,0.494,4.19,1.354V64.551z    M66.923,56.905c-0.935-0.449-1.96-0.762-3.079-0.869c0.216-1.449,0.842-2.678,1.763-3.613   C66.267,53.814,66.72,55.319,66.923,56.905z M62.343,53.131c-1.148-2.432-3.331-4.161-6.094-4.725   c0.146-1.356,0.647-2.53,1.407-3.47c2.769,1.11,5.131,3.017,6.794,5.447C63.578,51.143,62.849,52.057,62.343,53.131z    M48.752,38.858c0.466-2,1.092-3.334,1.814-4.569c1.085-1.926,2.499-3.754,4.202-5.248c0.414-0.351,0.831-0.7,1.279-1.019   l0.003-0.008v0l0.021,0.007c0.093-0.067,0.269-0.137,0.376-0.207l0.664-0.363c2.004-1.325,4.99-2.503,7.429-3.015   c1.146-0.165,1.867-0.21,2.786-0.21c2.199,0,4.311,0.456,6.287,1.146L61.828,38.858H51.569H48.752z"></path></g><g display="none"><path display="inline" fill="#C3C3C3" d="M72.848,79.076c1.334-0.607,2.644-1.257,3.922-1.981c0.993-0.565,1.96-1.175,2.889-1.84   l-3.495-7.857c-1.806,0.559-3.646,0.943-5.542,1.168c-1.92-1.272-3.522-2.891-4.751-4.847c-2.331-3.692-3.083-8.07-2.121-12.329   c0.961-4.259,3.525-7.887,7.221-10.219c0.877-0.554,1.722-0.988,2.589-1.328l-0.32-4.687c-5.547-1.35-11.52-0.371-16.344,2.686   c-2.574,1.622-4.737,3.76-6.382,6.243c-0.21-5.123,0.981-10.256,3.547-14.796c0,0-0.011-0.058,0.008-0.062   c1.153-2.082,2.62-4.085,4.347-5.857c1.206-1.231,2.481-2.1,3.791-3.013L60.808,16h-0.176c-4.978,0-9.96,1-14.404,3h-0.097   c-3.293,2-6.285,3.877-8.878,6.541c-0.112,0.114-0.217,0.271-0.325,0.385c0.437-1.181,0.934-2.327,1.51-3.463   c0.873-1.711,1.895-3.323,3.034-4.807l-2.673-3.479C33.403,15.829,28.403,19,24.333,23h0.085c-0.005,0,0.072-0.367,0.072-0.36   c-3.695,2.827-5.605,5.989-7.54,9.765c-9.219,18.066-2.069,40.166,15.983,49.377c5.23,2.678,10.82,3.856,16.66,3.856   c5.388,0,10.499-1.164,15.454-3.254C67.646,81.287,70.284,80.248,72.848,79.076z M63.323,41.412   c-0.207-0.393-0.363-0.731-0.474-1.001c0.617-0.217,1.244-0.411,1.885-0.552C64.233,40.353,63.768,40.875,63.323,41.412z    M58.578,42.675c0.428,0.981,1.039,2.109,1.81,3.371c-0.621,1.35-1.107,2.774-1.442,4.257c-1.087,4.806-0.493,9.727,1.66,14.081   c-0.59-0.488-1.174-0.981-1.727-1.521c-0.383-0.373-0.752-0.757-1.11-1.147c-0.117-0.13-0.229-0.264-0.346-0.397   c-0.233-0.265-0.468-0.53-0.69-0.801c-0.134-0.162-0.259-0.332-0.387-0.496c-0.193-0.251-0.391-0.499-0.576-0.753   c-0.133-0.179-0.253-0.367-0.38-0.549c-0.17-0.246-0.343-0.493-0.505-0.747c-0.125-0.194-0.242-0.394-0.361-0.591   c-0.151-0.25-0.303-0.498-0.446-0.751c-0.117-0.207-0.227-0.419-0.339-0.628c-0.134-0.252-0.267-0.503-0.392-0.76   c-0.109-0.217-0.207-0.438-0.309-0.657c-0.116-0.257-0.233-0.515-0.345-0.777c-0.099-0.227-0.187-0.457-0.276-0.687   c-0.066-0.167-0.127-0.335-0.189-0.503C53.028,48.615,55.306,45.078,58.578,42.675z M51.571,23.994   c-0.017-0.026-0.041-0.053-0.06-0.079c-0.088-0.118-0.169-0.232-0.25-0.346c-0.098-0.138-0.196-0.274-0.287-0.407   c-0.074-0.112-0.138-0.219-0.209-0.327c-0.057-0.092-0.114-0.185-0.171-0.275c0.921-0.358,1.86-0.667,2.813-0.925   C52.758,22.398,52.144,23.185,51.571,23.994z M40.778,29.058c1.628-1.666,3.433-3.109,5.386-4.303   c0.016,0.024,0.031,0.049,0.045,0.072c0.075,0.132,0.162,0.265,0.241,0.396c0.117,0.192,0.234,0.38,0.357,0.571   c0.095,0.141,0.195,0.281,0.294,0.422c0.125,0.183,0.252,0.365,0.391,0.547c0.107,0.147,0.222,0.292,0.335,0.437   c0.138,0.178,0.278,0.355,0.425,0.533c0.122,0.147,0.247,0.292,0.375,0.438c0.093,0.108,0.182,0.219,0.278,0.328   c-3.839,7.797-4.417,16.864-1.552,25.155c1.672,4.848,4.392,9.134,8.085,12.736c0.186,0.181,0.372,0.357,0.558,0.533   c-0.04-0.016-0.085-0.026-0.129-0.042c-1.139-0.413-2.339-0.937-3.563-1.554c-0.654-0.334-1.294-0.69-1.919-1.064   c-0.199-0.119-0.385-0.253-0.581-0.376c-0.42-0.263-0.841-0.524-1.243-0.805c-0.231-0.16-0.449-0.335-0.676-0.501   c-0.354-0.261-0.712-0.517-1.053-0.79c-0.232-0.188-0.453-0.389-0.682-0.583c-0.316-0.271-0.638-0.535-0.945-0.816   c-0.221-0.202-0.428-0.418-0.644-0.629c-0.293-0.288-0.597-0.571-0.877-0.871c-0.208-0.214-0.399-0.443-0.596-0.664   c-0.278-0.308-0.557-0.61-0.82-0.926c-0.188-0.228-0.359-0.464-0.542-0.697c-0.255-0.326-0.515-0.649-0.76-0.985   c-0.167-0.233-0.319-0.475-0.48-0.712c-0.236-0.348-0.48-0.693-0.701-1.052c-0.15-0.238-0.284-0.486-0.428-0.727   c-0.216-0.369-0.435-0.735-0.638-1.111c-0.13-0.244-0.247-0.496-0.369-0.744c-0.194-0.386-0.391-0.769-0.57-1.165   c-0.11-0.25-0.208-0.505-0.314-0.757c-0.172-0.402-0.343-0.805-0.497-1.215c-0.093-0.255-0.173-0.514-0.261-0.77   c-0.146-0.418-0.289-0.835-0.417-1.259c-0.077-0.263-0.141-0.532-0.214-0.799c-0.114-0.423-0.232-0.847-0.328-1.277   c-0.061-0.279-0.108-0.561-0.164-0.842c-0.085-0.424-0.17-0.846-0.237-1.275c-0.047-0.3-0.078-0.604-0.116-0.908   c-0.054-0.412-0.106-0.825-0.143-1.243c-0.026-0.328-0.043-0.659-0.062-0.989c-0.019-0.319-0.034-0.638-0.045-0.958   C36.326,34.574,38.27,31.629,40.778,29.058z M31.688,26.032c-0.067-0.046-0.134-0.091-0.2-0.137   c-0.295-0.207-0.575-0.414-0.837-0.616c-0.088-0.07-0.184-0.138-0.266-0.208c-0.324-0.261-0.625-0.52-0.891-0.767   c-0.008-0.007-0.015-0.015-0.023-0.022c1.246-1.017,2.569-1.939,3.957-2.757C32.75,22.998,32.168,24.505,31.688,26.032z    M49.571,80.799c-5.051,0-9.906-1.177-14.438-3.498c-15.636-7.978-21.865-27.198-13.881-42.84c1.272-2.485,2.829-4.754,4.646-6.772   c0.055,0.055,0.119,0.106,0.175,0.159c0.168,0.159,0.345,0.315,0.524,0.472c0.151,0.135,0.303,0.267,0.465,0.401   c0.189,0.157,0.388,0.312,0.59,0.467c0.168,0.129,0.331,0.257,0.505,0.385c0.213,0.155,0.431,0.306,0.653,0.459   c0.177,0.123,0.354,0.246,0.537,0.366c0.229,0.151,0.47,0.298,0.712,0.445c0.144,0.089,0.279,0.18,0.428,0.267   c-0.342,2.1-0.494,4.219-0.451,6.309c0.164,13.705,7.84,26.081,20.042,32.303c1.405,0.71,2.789,1.313,4.102,1.789   c0.845,0.309,1.695,0.576,2.554,0.821c0.258,0.075,0.52,0.137,0.777,0.206c0.625,0.164,1.252,0.311,1.886,0.442   c0.275,0.058,0.549,0.114,0.827,0.164c0.729,0.132,1.459,0.241,2.195,0.33c0.153,0.018,0.304,0.044,0.457,0.062   c0.045,0.005-0.069,0.013-0.025,0.017c-0.015,0.284,0.538,4.014,0.557,4.087C59.092,79.712,54.354,80.799,49.571,80.799z"></path></g><g display="none"><path display="inline" fill="#C3C3C3" d="M75.354,38.233c0-6.893-5.601-12.501-12.487-12.501c-3.374,0-6.538,1.4-8.844,3.721   c-0.263-0.263-0.322-0.533-0.606-0.771c0.531-8.73,4.897-15.369,11.897-15.369V7.872c-6,0-10.064,3.075-13.214,7.859   c-0.47-3.855-2.977-7.276-6.489-8.985l-2.676-1.283l-0.904,0.628c-0.59-0.476-1.247-0.885-1.932-1.213l-2.617-1.246l-2.361,1.682   c-0.407,0.291-0.789,0.609-1.143,0.955c-1.817-0.537-3.832-0.5-5.622,0.126l-2.758,0.966l-0.465,2.885   c-0.303,1.885,0.016,3.831,0.862,5.528c-0.291,0.424-0.549,0.869-0.772,1.335l-1.251,2.626l1.7,2.355   c0.438,0.607,0.946,1.161,1.512,1.655l-0.467,0.974l0.784,1.086c-0.448-0.048-0.901-0.073-1.36-0.073   c-6.892,0-12.5,5.608-12.5,12.501c0,6.29,4.676,11.494,10.729,12.359c-0.767,1.618-1.208,3.419-1.208,5.324   c0,6.283,4.667,11.484,10.721,12.356c-0.767,1.618-1.2,3.422-1.2,5.327c0,6.893,5.608,12.5,12.5,12.5   c6.886,0,12.487-5.607,12.487-12.5c0-0.979-0.116-1.946-0.337-2.882l-0.696-2.088c-0.053-0.118-0.105-0.235-0.159-0.352   c5.311-1.465,9.354-6.533,9.354-12.36c0-1.905-0.439-3.705-1.203-5.323C70.681,49.734,75.354,44.527,75.354,38.233z M51.567,35.232   c1.614,3.423,0.024,7.836-3.434,9.399c-2.728,1.232-5.94,0.657-8.028-1.504c-1.746-1.807-2.317-4.063-1.785-6.469   c0.714-3.229,3.537-5.485,6.865-5.485C47.9,31.173,50.404,32.766,51.567,35.232z M31.425,14.168   c-0.675-0.745-1.023-1.745-0.956-2.731c0.943-0.235,2.041-0.062,2.872,0.454l2.309,1.438l1.438-2.31   c0.258-0.413,0.574-0.777,0.94-1.081c0.563,0.324,1.055,0.777,1.438,1.321l1.669,2.386l2.296-1.852   c1.76,0.983,2.945,2.795,3.115,4.801c0.114,1.374-0.258,2.731-0.994,3.859c-0.84,0.442-1.849,0.651-2.88,0.476   c-1.209-0.201-2.399-0.918-3.138-2.109l-0.602,0.284c0.416,1.489,1.577,2.871,3.12,3.606c0.354,0.174,0.73,0.308,1.119,0.416   c-0.949,1.839-2.795,3.094-4.859,3.279c-2.032,0.189-4.006-0.67-5.268-2.233l1.459-2.58l-2.662-1.246   c-0.606-0.283-1.137-0.688-1.553-1.182c0.24-0.419,0.551-0.798,0.928-1.134l2.057-1.825L31.425,14.168z M26.141,45.292   c-3.892,0-7.059-3.167-7.059-7.059c0-3.894,3.167-7.06,7.059-7.06c3.318,0,6.143,2.258,6.868,5.493   C33.989,41.04,30.647,45.292,26.141,45.292z M35.676,62.976c-3.9,0-7.072-3.167-7.072-7.059c0-3.894,3.172-7.061,7.072-7.061   c3.876,0,7.032,3.191,7.032,7.061C42.708,59.838,39.608,62.976,35.676,62.976z M45.185,80.659c-3.892,0-7.059-3.167-7.059-7.059   c0-3.894,3.167-7.06,7.059-7.06c3.122,0,4.761,1.864,4.761,1.864c1.461,1.321,2.285,3.177,2.285,5.196   C52.23,77.492,49.07,80.659,45.185,80.659z M53.346,63.261c-2.149-0.092-4.88-0.896-5.75-3.655c0.015-0.047,0.02-0.1,0.033-0.147   c0.141-0.473,0.247-0.955,0.329-1.444c0.024-0.144,0.048-0.288,0.066-0.434c0.075-0.551,0.125-1.106,0.125-1.665   c0-0.57-0.053-1.136-0.13-1.698c-0.016-0.124-0.032-0.244-0.052-0.367c-0.091-0.548-0.212-1.089-0.375-1.617   c-0.006-0.021-0.009-0.045-0.015-0.067c-0.104-0.338,0.877-1.188,1.095-1.413c2.404-2.461,6.828-2.484,9.328-0.181   c0.667,0.614,1.346,1.489,1.716,2.322c0.396,0.892,0.675,2.039,0.675,3.02C60.392,59.897,57.163,63.423,53.346,63.261z    M62.868,45.292c-2.354,0-4.542-1.186-5.834-3.094c0.122-0.368,0.223-0.742,0.311-1.121c0.024-0.105,0.043-0.212,0.065-0.319   c0.062-0.307,0.113-0.615,0.152-0.927c0.016-0.119,0.032-0.235,0.043-0.355c0.039-0.411,0.066-0.824,0.066-1.243   c0-0.42-0.027-0.833-0.066-1.244c-0.011-0.119-0.027-0.236-0.043-0.354c-0.04-0.311-0.09-0.619-0.151-0.925   c-0.022-0.107-0.042-0.216-0.066-0.323c-0.087-0.378-0.188-0.753-0.311-1.121c1.292-1.907,3.48-3.094,5.834-3.094   c3.886,0,7.046,3.167,7.046,7.06C69.914,42.125,66.753,45.292,62.868,45.292z"></path></g><g display="none"><path display="inline" fill="#C3C3C3" d="M59.201,24.199c-2.216,0-4.376,0.241-6.461,0.688c0.919-3.925,3.399-6.014,5.005-6.014   v-5.441c-4.295,0-9.175,4.932-10.468,11.393c-1.304-0.169-2.629-0.266-3.978-0.266c-16.953,0-30.744,13.791-30.744,30.742   c0,16.952,13.791,30.744,30.744,30.744c2.992,0,5.883-0.438,8.62-1.239c2.336,0.57,4.773,0.879,7.282,0.879   c16.953,0,30.744-13.792,30.744-30.744C89.945,37.99,76.154,24.199,59.201,24.199z M51.79,79.134   C41.443,75.958,33.9,66.315,33.9,54.941c0-10.974,7.023-20.334,16.81-23.831c10.346,3.176,17.892,12.818,17.892,24.191   C68.602,66.275,61.577,75.636,51.79,79.134z M17.997,55.301c0-13.216,10.188-24.091,23.123-25.201   c-7.667,5.596-12.661,14.644-12.661,24.841c0,10.694,5.492,20.127,13.8,25.637C28.787,80.029,17.997,68.904,17.997,55.301z    M61.381,80.144c7.667-5.596,12.662-14.645,12.662-24.842c0-10.694-5.492-20.126-13.801-25.635   c13.469,0.548,24.262,11.673,24.262,25.275C84.504,68.158,74.314,79.034,61.381,80.144z"></path></g><g display="none"><path display="inline" fill="#C3C3C3" d="M50.908,80.537c-7.008,0-13.479-3.697-17.316-9.89c-1.102-1.782-1.998-3.865-2.525-5.868   c-0.564-2.149-0.875-4.402-0.922-6.697c-0.141-6.85,2.181-14.206,7.107-22.486c2.696-4.535,7.013-10.565,13.322-10.565   c0.713,0,1.435,0.081,2.146,0.239c4.252,0.946,7.03,4.099,8.75,6.388c3.788,5.048,8.539,12.945,9.662,21.907   c1.024,8.169-1.048,18.757-9.932,23.974c-1.337,0.785-3.992,2.177-6.766,2.679C53.269,80.431,52.084,80.537,50.908,80.537z    M50.573,30.473c-3.944,0-7.482,5.95-8.646,7.905c-4.389,7.38-6.464,13.789-6.342,19.592c0.038,1.867,0.287,3.692,0.744,5.425   c0.394,1.497,1.063,3.055,1.889,4.389c2.838,4.578,7.58,7.312,12.69,7.312c0.852,0,1.712-0.078,2.557-0.23   c1.422-0.257,3.236-0.992,4.979-2.016c6.614-3.884,8.06-12.45,7.29-18.606c-0.975-7.777-5.223-14.797-8.615-19.317   c-1.907-2.542-3.683-3.922-5.581-4.345C51.214,30.51,50.89,30.473,50.573,30.473z"></path></g><g display="none"><path display="inline" fill="#C3C3C3" d="M71.147,60.972l-0.046,0.021L48.185,10.521l-4.969,0.032L20.94,61.336l-0.017-0.007   l-6.938,15.797l1.316,1.314l0.296,0.26c1.503,1.225,3.15,2.404,4.903,3.509c7.606,4.755,16.387,7.27,25.398,7.27   c9.026,0,17.806-2.515,25.374-7.265c1.93-1.197,3.754-2.523,5.43-3.941l1.587-1.561L71.147,60.972z M45.751,18.321l19.634,43.254   c-5.193,5.052-12.197,7.922-19.485,7.922c-7.147,0-14.07-2.789-19.241-7.674L45.751,18.321z M68.393,77.598   c-6.712,4.212-14.491,6.439-22.493,6.439c-7.989,0-15.774-2.228-22.504-6.438c-0.957-0.602-1.877-1.231-2.754-1.876l3.739-8.656   c6.002,5.035,13.644,7.87,21.518,7.87c8.053,0,15.81-2.935,21.839-8.148l3.869,8.595C70.585,76.163,69.513,76.903,68.393,77.598z    M32.454,57.855c0-1.74,0.935-3.261,2.329-4.089c1.398,0.828,2.333,2.349,2.333,4.089c0,1.74-0.935,3.265-2.333,4.091   C33.389,61.121,32.454,59.596,32.454,57.855z M48.776,46.974c0-1.74,0.936-3.261,2.33-4.089c1.397,0.828,2.333,2.349,2.333,4.089   c0,1.74-0.936,3.265-2.333,4.091C49.712,50.239,48.776,48.713,48.776,46.974z M47.998,57.855c0,1.74-0.935,3.265-2.332,4.091   c-1.396-0.826-2.33-2.351-2.33-4.091c0-1.74,0.935-3.261,2.33-4.089C47.063,54.594,47.998,56.115,47.998,57.855z M43.336,37.452   c0-1.74,0.935-3.261,2.33-4.089c1.397,0.828,2.332,2.349,2.332,4.089c0,1.74-0.935,3.265-2.332,4.091   C44.27,40.717,43.336,39.192,43.336,37.452z M39.255,46.974c0-1.74,0.936-3.261,2.33-4.089c1.397,0.828,2.333,2.349,2.333,4.089   c0,1.74-0.936,3.265-2.333,4.091C40.19,50.239,39.255,48.713,39.255,46.974z M55.578,57.855c0-1.74,0.935-3.261,2.33-4.089   c1.397,0.828,2.332,2.349,2.332,4.089c0,1.74-0.934,3.265-2.332,4.091C56.513,61.121,55.578,59.596,55.578,57.855z"></path></g><g display="none"><path display="inline" fill="#C3C3C3" d="M83.704,68.14c-0.567,0.083-0.623-0.687-1.198-0.687c-0.572,0-0.572,0.691-1.147,0.691   c-0.576,0-0.576-0.691-1.15-0.691c-0.573,0-0.573,0.691-1.147,0.691c-0.575,0-0.575-0.691-1.149-0.691   c-0.575,0-0.575,0.691-1.147,0.691c-0.572,0-0.572-0.691-1.145-0.691c-0.573,0-0.573,0.691-1.145,0.691   c-0.572,0-0.572-0.691-1.144-0.691c-0.572,0-0.572,0.691-1.144,0.691c-0.572,0-0.572-0.691-1.144-0.691   c-0.571,0-0.571,0.691-1.144,0.691c-0.57,0-0.57-0.691-1.142-0.691c-0.569,0-0.569,0.691-1.144,0.691   c-0.572,0-0.572-0.691-1.144-0.691c-0.573,0-0.573,0.691-1.148,0.691c-0.571,0-0.571-0.691-1.144-0.691   c-0.574,0-0.574,0.691-1.147,0.691c-0.575,0-0.575-0.691-1.15-0.691c-0.575,0-0.575,0.691-1.151,0.691   c-0.578,0-0.578-0.691-1.153-0.691c-0.575,0-0.575,0.691-1.151,0.691c-0.572,0-0.572-0.691-1.146-0.691   c-0.575,0-0.575,0.691-1.147,0.691c-0.574,0-0.574-0.691-1.149-0.691c-0.572,0-0.572,0.691-1.146,0.691   c-0.575,0-0.575-0.691-1.147-0.691c-0.574,0-0.574,0.691-1.149,0.691c-0.573,0-0.573-0.691-1.147-0.691   c-0.579,0-0.579,0.691-1.153,0.691c-0.576,0-0.576-0.691-1.152-0.691c-0.575,0-0.575,0.691-1.15,0.691   c-0.577,0-0.577-0.691-1.152-0.691s-0.575,0.691-1.15,0.691c-0.575,0-0.575-0.691-1.15-0.691s-0.575,0.691-1.151,0.691   c-0.575,0-0.575-0.691-1.153-0.691c-0.575,0-0.575,0.691-1.152,0.691c-0.574,0-0.574-0.691-1.152-0.691   c-0.576,0-0.576,0.691-1.152,0.691c-0.575,0-0.575-0.691-1.15-0.691c-0.578,0-0.578,0.691-1.156,0.691   c-0.576,0-0.576-0.691-1.154-0.691c-0.575,0-0.575,0.691-1.152,0.691c-0.574,0-0.574-0.691-1.149-0.691   c-0.578,0-0.578,0.691-1.155,0.691c-0.576,0-0.576-0.691-1.15-0.691c-0.573,0-0.573,0.691-1.149,0.691   c-0.575,0-0.575-0.691-1.15-0.691c-0.578,0-0.578,0.691-1.158,0.691c-0.575,0-0.575-0.691-1.153-0.691   c-0.579,0-0.579,0.691-1.154,0.691c-0.58,0-0.58-0.691-1.157-0.691c-0.579,0-0.579,0.691-1.155,0.691   c-0.579,0-0.579-0.691-1.154-0.691c-0.575,0-0.575,0.691-1.153,0.691c-0.579,0-0.579-0.691-1.158-0.691   c-0.58,0-0.58,0.691-1.161,0.691c-0.582,0-0.582-0.691-1.162-0.691c-0.582,0-0.633,0.762-1.208,0.688l-0.005-10.043   c0.568-0.083,0.623,0.687,1.198,0.687c0.574,0,0.574-0.691,1.147-0.691c0.575,0,0.575,0.691,1.15,0.691   c0.572,0,0.572-0.691,1.149-0.691c0.573,0,0.573,0.691,1.147,0.691c0.572,0,0.572-0.691,1.146-0.691   c0.572,0,0.572,0.691,1.148,0.691c0.573,0,0.573-0.691,1.146-0.691s0.572,0.691,1.141,0.691c0.572,0,0.572-0.691,1.144-0.691   s0.571,0.691,1.145,0.691c0.57,0,0.57-0.691,1.142-0.691c0.573,0,0.573,0.691,1.143,0.691c0.571,0,0.571-0.691,1.146-0.691   c0.572,0,0.572,0.691,1.144,0.691c0.574,0,0.574-0.691,1.146-0.691c0.572,0,0.572,0.691,1.145,0.691   c0.574,0,0.574-0.691,1.149-0.691s0.575,0.691,1.149,0.691c0.577,0,0.577-0.691,1.152-0.691c0.575,0,0.575,0.691,1.152,0.691   c0.574,0,0.574-0.691,1.15-0.691c0.572,0,0.572,0.691,1.148,0.691c0.572,0,0.572-0.691,1.146-0.691   c0.573,0,0.573,0.691,1.148,0.691c0.574,0,0.574-0.691,1.146-0.691c0.575,0,0.575,0.691,1.149,0.691   c0.573,0,0.573-0.691,1.148-0.691s0.575,0.691,1.15,0.691c0.577,0,0.577-0.691,1.152-0.691c0.576,0,0.576,0.691,1.152,0.691   c0.575,0,0.575-0.691,1.15-0.691c0.575,0,0.575,0.691,1.15,0.691c0.575,0,0.575-0.691,1.15-0.691s0.575,0.691,1.15,0.691   s0.575-0.691,1.152-0.691c0.575,0,0.575,0.691,1.151,0.691c0.576,0,0.576-0.691,1.151-0.691c0.578,0,0.578,0.691,1.153,0.691   c0.578,0,0.578-0.691,1.153-0.691c0.577,0,0.577,0.691,1.152,0.691c0.577,0,0.577-0.691,1.154-0.691   c0.575,0,0.575,0.691,1.153,0.691c0.576,0,0.576-0.691,1.153-0.691c0.573,0,0.573,0.691,1.148,0.691   c0.578,0,0.578-0.691,1.153-0.691c0.578,0,0.578,0.691,1.153,0.691c0.573,0,0.573-0.691,1.15-0.691   c0.573,0,0.573,0.691,1.147,0.691c0.58,0,0.58-0.691,1.158-0.691c0.578,0,0.578,0.691,1.153,0.691c0.578,0,0.578-0.691,1.153-0.691   c0.58,0,0.58,0.691,1.158,0.691c0.579,0,0.579-0.691,1.155-0.691c0.578,0,0.578,0.691,1.153,0.691c0.579,0,0.579-0.691,1.158-0.691   c0.578,0,0.578,0.691,1.157,0.691s0.579-0.691,1.159-0.691c0.582,0,0.582,0.691,1.164,0.691c0.582,0,0.631-0.763,1.207-0.688   L83.704,68.14z M83.312,58.891 M83.312,66.657 M83.312,66.979 M14.967,58.935 M14.967,59.258 M14.967,59.58 M14.967,59.894    M14.967,60.215 M14.967,60.532 M14.967,60.843 M14.967,61.153 M14.967,61.463 M14.967,61.775 M14.967,62.092 M14.967,62.405    M14.967,62.715 M14.967,63.025 M14.967,63.336 M14.967,63.646 M14.967,63.958 M14.967,64.27 M14.967,64.582 M14.967,64.897    M14.967,65.209 M14.967,65.52 M14.967,65.828 M14.967,66.134 M14.967,66.439 M14.967,66.742 M14.967,67.045 M14.967,67.347    M83.014,46H15.328l0.037-2.717C15.634,23.669,29.535,9.99,49.17,9.99c19.639,0,33.539,13.668,33.807,33.282L83.014,46z M20.952,41   h56.436C75.97,26,64.709,15.811,49.17,15.811C33.632,15.811,22.374,26,20.952,41z M83,87H16V72h67V87z M21,81h56v-4H21V81z    M74.471,56.297c-2.895,0-4.489-1.042-5.657-1.802c-0.906-0.592-1.405-0.918-2.678-0.918c-1.272,0-1.771,0.326-2.679,0.917   c-1.163,0.761-2.76,1.803-5.651,1.803c-2.891,0-4.485-1.042-5.649-1.804c-0.904-0.591-1.402-0.917-2.671-0.917   c-1.273,0-1.771,0.325-2.677,0.917c-1.164,0.761-2.76,1.803-5.651,1.803c-2.891,0-4.486-1.042-5.651-1.803   c-0.904-0.592-1.402-0.917-2.674-0.917c-1.272,0-1.767,0.325-2.674,0.917c-1.165,0.761-2.761,1.803-5.652,1.803   s-4.578-1.042-5.742-1.804C17.861,53.902,17,53.577,16,53.577v-5.441c3,0,4.576,1.042,5.74,1.804   c0.906,0.592,1.449,0.917,2.72,0.917c1.271,0,1.793-0.325,2.699-0.917c1.162-0.761,2.771-1.804,5.662-1.804   c2.893,0,4.491,1.043,5.657,1.804c0.903,0.591,1.406,0.917,2.676,0.917c1.272,0,1.771-0.326,2.678-0.917   c1.165-0.761,2.761-1.804,5.651-1.804c2.891,0,4.485,1.043,5.649,1.804c0.903,0.591,1.402,0.917,2.673,0.917   c1.273,0,1.771-0.326,2.678-0.918c1.165-0.76,2.76-1.803,5.652-1.803c2.893,0,4.489,1.042,5.653,1.803   c0.907,0.592,1.406,0.918,2.682,0.918c1.275,0,1.872-0.326,2.78-0.918C78.415,49.178,80,48.136,83,48.136v5.441   c-2,0-1.87,0.326-2.776,0.918C79.058,55.255,77.364,56.297,74.471,56.297z M40.871,28.71l-0.691-0.41   c-1.86-1.103-3.016-3.131-3.016-5.295c0-2.159,1.155-4.187,3.013-5.294l0.694-0.413l0.695,0.413   c1.862,1.104,3.019,3.133,3.019,5.294c0,2.167-1.156,4.196-3.021,5.296L40.871,28.71z M40.874,20.592   c-0.631,0.634-0.989,1.49-0.989,2.414c0,0.91,0.363,1.777,0.989,2.412c0.623-0.634,0.991-1.501,0.991-2.412   C41.865,22.081,41.505,21.225,40.874,20.592z M51.396,24.366l-0.536-0.6c-1.441-1.611-1.933-3.894-1.28-5.957   c0.646-2.058,2.357-3.645,4.466-4.141l0.786-0.185l0.537,0.602c1.443,1.612,1.937,3.895,1.288,5.955   c-0.651,2.066-2.366,3.653-4.474,4.143L51.396,24.366z M53.842,16.623c-0.792,0.415-1.393,1.123-1.67,2.004   c-0.274,0.869-0.187,1.808,0.221,2.602c0.791-0.414,1.389-1.122,1.668-2.005C54.338,18.341,54.253,17.417,53.842,16.623z    M66.716,34.151l-0.692-0.41c-1.859-1.103-3.015-3.131-3.015-5.295c0-2.158,1.155-4.187,3.013-5.294l0.694-0.413l0.695,0.413   c1.862,1.104,3.019,3.133,3.019,5.294c0,2.166-1.156,4.196-3.021,5.296L66.716,34.151z M66.719,26.033   c-0.631,0.634-0.99,1.49-0.99,2.414c0,0.91,0.364,1.777,0.99,2.412c0.623-0.634,0.991-1.501,0.991-2.412   C67.71,27.522,67.35,26.666,66.719,26.033z M33.08,32.875c-1.645,0-3.19-0.641-4.352-1.805c-1.527-1.526-2.144-3.777-1.609-5.874   l0.199-0.782l0.782-0.2c2.084-0.534,4.348,0.083,5.875,1.61c1.53,1.53,2.149,3.784,1.61,5.881l-0.201,0.78l-0.779,0.199   C34.108,32.811,33.595,32.875,33.08,32.875z M29.646,26.742c0.002,0.893,0.354,1.752,1.007,2.405   c0.643,0.644,1.495,1.001,2.404,1.008c-0.006-0.892-0.361-1.764-1.004-2.407C31.406,27.103,30.554,26.747,29.646,26.742z    M54.562,35.356c-1.323,0-2.582-0.416-3.647-1.201c-1.74-1.281-2.686-3.415-2.472-5.568l0.078-0.803l0.744-0.315   c1.977-0.836,4.315-0.57,6.055,0.709c1.742,1.287,2.688,3.422,2.468,5.575l-0.082,0.8l-0.739,0.313   C56.203,35.192,55.395,35.356,54.562,35.356z M51.173,29.737c0.137,0.883,0.612,1.68,1.356,2.228   c0.73,0.538,1.648,0.759,2.529,0.635c-0.14-0.88-0.621-1.69-1.354-2.231C52.974,29.831,52.058,29.604,51.173,29.737z    M39.093,38.368c-0.452,0-0.906-0.05-1.347-0.149l-0.787-0.176l-0.223-0.775c-0.598-2.079-0.051-4.348,1.432-5.922   c1.469-1.56,3.735-2.255,5.825-1.789l0.787,0.175l0.224,0.775c0.601,2.08,0.051,4.351-1.43,5.925   C42.416,37.662,40.783,38.368,39.093,38.368z M42.526,32.13c-0.908,0.032-1.749,0.412-2.378,1.079   c-0.621,0.662-0.949,1.544-0.93,2.437c0.908-0.032,1.747-0.412,2.374-1.078C42.227,33.893,42.552,33.024,42.526,32.13z"></path></g><g display="none"><path display="inline" fill="#C3C3C3" d="M45.181,92.683c-13.438,0-24.791-11.087-24.791-24.211c0-8.419,4.309-15.303,8.604-21.961   C31.4,42.781,34,39.25,35,35.567v-3.518c-5-1.154-9.389-6.045-9.389-12.076c-0.002-3.295,1.381-6.399,3.774-8.738   c2.367-2.313,5.518-3.587,8.809-3.587c2.443,0,4.856,0.725,6.867,2.036c2.007-1.311,4.399-2.036,6.826-2.036   c6.812,0,12.383,5.529,12.383,12.325c0,6.389-4.27,11.659-11.27,12.274v2.182c1,2.82,2.709,5.626,4.355,8.343   c0.412,0.678,0.806,1.347,1.194,2.006c1.007,1.707,2.135,3.316,3.33,5.018c2.036,2.892,4.138,5.882,5.601,9.399   c1.236,2.978,1.888,6.185,1.888,9.275C69.366,81.822,58.515,92.683,45.181,92.683z M40.856,36.566l-0.247,0.462   c-1.649,4.393-4.323,8.479-6.873,12.432c-4.046,6.271-7.887,12.194-7.887,19.011c0,10.175,8.851,18.77,19.339,18.77   c10.335,0,18.738-8.421,18.741-18.771c0-2.38-0.513-4.865-1.475-7.187c-1.234-2.964-3.079-5.584-5.029-8.357   c-1.206-1.715-2.455-3.487-3.573-5.38c-0.38-0.642-0.774-1.294-1.175-1.954c-1.79-2.954-3.745-6.3-4.949-9.817l-0.071-0.429   c0-1.328-0.245-2.885-0.004-4.182c1.144-6.189,11.154-3.497,11.154-11.163c0-3.795-3.101-6.898-6.913-6.898   c-1.833,0-3.617,0.722-4.895,1.994l-1.918,1.906l-1.919-1.91c-1.281-1.274-3.079-2.005-4.937-2.005   c-1.861,0-3.627,0.723-4.971,2.036c-1.337,1.307-2.072,3.027-2.071,4.845c0.001,2.945,1.617,4.705,4.067,6.051   c1.84,1.011,6.558,2.139,6.25,4.903L40.856,36.566z M45.175,48c-3.902,0-7.705-0.268-11.307-1.63l1.926-5.08   c2.982,1.128,6.139,1.71,9.383,1.71h0.008c3.172,0,6.262-0.342,9.19-1.416l1.872,4.787C52.719,47.665,48.998,48,45.187,48H45.175z"></path></g><g display="none"><path display="inline" fill="#C3C3C3" d="M79.405,25.06l-0.395-1.565l-1.564-0.403c-1.939-0.5-3.939-0.754-5.945-0.754   c-6.312,0-12.248,2.452-16.717,6.904c-0.181,0.181-0.348,0.371-0.523,0.557V17.187h-6v16.625c-0.987-1.646-2.173-3.186-3.56-4.567   c-4.47-4.453-10.405-6.905-16.716-6.905c-2.006,0-4.007,0.254-5.946,0.754l-1.563,0.403l-0.395,1.565   c-2.045,8.08,0.351,16.75,6.25,22.627c4.476,4.457,10.417,6.912,16.729,6.912c1.753,0,3.497-0.205,5.201-0.589v10.355   c0,9.371-5,16.995-12,16.995v5.441c9,0,18-10.064,18-22.436v-9.876c0.719,0.066,1.44,0.11,2.163,0.11   c6.312,0,12.254-2.455,16.73-6.912C79.054,41.81,81.449,33.139,79.405,25.06z M46.005,48.92c-0.971,0.159-1.956,0.238-2.944,0.238   c-4.862,0-9.44-1.892-12.89-5.326c-4.152-4.136-6.052-10.069-5.148-15.812c0.979-0.16,1.971-0.24,2.963-0.24   c4.861,0,9.432,1.888,12.875,5.318C45.021,37.241,46.918,43.179,46.005,48.92z M69.315,43.832   c-3.448,3.435-8.026,5.326-12.89,5.326c-0.725,0-1.445-0.058-2.163-0.143v-8.916c0.894-2.601,2.364-5.009,4.364-7.001   c3.441-3.429,8.014-5.317,12.875-5.317c0.992,0,1.984,0.08,2.962,0.24C75.366,33.763,73.467,39.696,69.315,43.832z"></path></g><g display="none"><path display="inline" fill="#C3C3C3" d="M16.09,39.893l0.042,2.761C16.419,60.633,31.838,75.82,49.804,75.82   c17.966,0,33.383-15.187,33.666-33.167l0.042-2.76H16.09z M73.382,48.469c-2.072,0-4.276-0.576-4.875-3.576h9.336   c-0.07,0.594-0.166,1.18-0.274,1.762C76.605,48.133,74.955,48.469,73.382,48.469z M63.291,44.893c-0.598,3-2.803,3.576-4.871,3.576   c-2.072,0-4.277-0.576-4.876-3.576H63.291z M21.76,44.893h8.887c-0.599,3-2.804,3.576-4.873,3.576   c-1.291,0-2.633-0.224-3.605-1.118C21.996,46.543,21.858,45.724,21.76,44.893z M45.608,44.893c-0.598,3-2.803,3.576-4.872,3.576   c-2.072,0-4.276-0.576-4.875-3.576H45.608z M36.938,66.723c2.834-4.417,7.702-7.242,12.855-7.242   c5.151,0,10.029,2.824,12.879,7.241c-3.894,2.052-8.28,3.223-12.868,3.223C45.217,69.945,40.831,68.775,36.938,66.723z    M67.22,63.747c-3.845-5.921-10.442-9.706-17.427-9.706c-6.988,0-13.575,3.786-17.402,9.708c-4.045-3.226-7.232-7.52-9.07-12.438   c0.757,0.205,1.578,0.314,2.453,0.314c3.835,0,6.636-2.063,7.479-5.42c0.843,3.357,3.646,5.42,7.483,5.42   c4.314,0,7.326-2.604,7.707-6.731h2.266c0.38,4.127,3.394,6.731,7.711,6.731c3.834,0,6.636-2.062,7.479-5.419   c0.843,3.356,3.646,5.419,7.482,5.419c1.076,0,2.068-0.168,2.963-0.475C74.518,56.134,71.307,60.486,67.22,63.747z"></path></g><g display="none"><path display="inline" fill="#C3C3C3" d="M50.055,79h-32.38l-0.327-0.224C12.168,77.127,7,72.339,7,66.564V44.811   C7,41.599,10.005,39,12.837,39h41.995C57.769,39,60,41.652,60,44.811v22.18c0,5.052-3.929,9.951-9.481,11.777L50.055,79z    M18.547,73h30.609C52.25,72,55,69.574,55,66.991v-22.18C55,44.808,55,45,55,45H12.837C12.68,45,12,44.924,12,45.038v21.526   C12,69.424,15.469,72,18.547,73z M92,48v3.624L79.986,53H72v5H62v-4.677V48H92z M21.831,90.281l-0.694-0.173   c-2.009-0.502-3.623-2.045-4.209-4.029c-0.59-1.979-0.083-4.153,1.325-5.674l0.487-0.527l0.695,0.177   c2.006,0.509,3.616,2.053,4.203,4.03c0.589,1.983,0.083,4.157-1.322,5.672L21.831,90.281z M19.564,82.668   c-0.477,0.816-0.599,1.79-0.321,2.722c0.274,0.919,0.922,1.678,1.756,2.103c0.47-0.814,0.594-1.802,0.324-2.722   C21.048,83.856,20.403,83.096,19.564,82.668z M30.243,90.29l-0.689-0.178c-2.004-0.516-3.606-2.072-4.178-4.06   c-0.573-1.984-0.051-4.154,1.366-5.662l0.492-0.523l0.694,0.181c2,0.522,3.6,2.078,4.174,4.062   c0.575,1.987,0.051,4.157-1.366,5.661L30.243,90.29z M28.037,82.66c-0.481,0.813-0.611,1.787-0.341,2.722   c0.265,0.921,0.903,1.684,1.741,2.116c0.475-0.81,0.606-1.797,0.34-2.718C29.508,83.844,28.88,83.091,28.037,82.66z M36.797,90.263   l-0.481-0.529c-1.387-1.533-1.87-3.713-1.258-5.689c0.612-1.974,2.241-3.498,4.253-3.979l0.696-0.166l0.481,0.531   c1.387,1.533,1.866,3.712,1.254,5.686c-0.61,1.975-2.238,3.501-4.25,3.98L36.797,90.263z M39.146,82.675   c-0.847,0.413-1.49,1.155-1.779,2.085c-0.285,0.916-0.169,1.905,0.291,2.725c0.843-0.416,1.495-1.168,1.778-2.082   C39.724,84.472,39.614,83.496,39.146,82.675z M44.252,89.838l-0.365-0.614c-1.057-1.781-1.093-4.014-0.095-5.826   c0.99-1.812,2.893-2.981,4.962-3.05l0.717-0.024l0.363,0.617c1.052,1.784,1.087,4.015,0.091,5.823   c-0.992,1.813-2.893,2.983-4.96,3.049L44.252,89.838z M48.069,82.876c-0.909,0.24-1.701,0.844-2.16,1.684   c-0.464,0.841-0.549,1.834-0.262,2.728c0.909-0.238,1.7-0.844,2.16-1.685C48.269,84.765,48.353,83.773,48.069,82.876z M46,35h-4   v-1.653c0-0.261-0.683-0.73-1.127-0.983c-1.322-0.753-3.206-1.891-3.206-4.352c0-2.46,2.061-3.598,3.384-4.352   c0.445-0.252,1.303-0.722,1.396-0.955c-0.096-0.285-0.905-0.753-1.349-1.004c-1.325-0.753-3.319-1.888-3.319-4.348   c0-2.46,1.768-3.596,3.092-4.348C41.314,12.755,42,12.287,42,12.054v-1.938l4-0.024v1.938c0,2.459-1.824,3.596-3.15,4.348   c-0.441,0.251-1.18,0.719-1.275,0.952c0.096,0.282,0.965,0.75,1.407,1.001c1.325,0.752,3.351,1.888,3.351,4.348   c0,2.461-1.992,3.6-3.315,4.353c-0.444,0.252-1.266,0.722-1.358,0.955c0.093,0.287,0.746,0.756,1.19,1.009   C44.172,29.748,46,30.886,46,33.347V35z M37,35h-4v-1.653c0-0.261-1.025-0.731-1.47-0.983c-1.325-0.753-3.381-1.891-3.381-4.352   c0-2.46,1.975-3.598,3.3-4.351c0.442-0.252,1.256-0.723,1.35-0.955c-0.096-0.287-0.927-0.754-1.368-1.006   c-1.325-0.752-3.329-1.888-3.329-4.348s2.106-3.595,3.43-4.347C31.976,12.755,33,12.287,33,12.055v-1.938l4-0.025v1.938   c0,2.459-2.171,3.595-3.493,4.347c-0.444,0.251-1.353,0.719-1.448,0.952c0.096,0.284,0.877,0.751,1.318,1.003   c1.324,0.752,3.307,1.888,3.307,4.348c0,2.461-2.012,3.6-3.337,4.352c-0.444,0.252-1.274,0.723-1.367,0.955   c0.093,0.287,1.087,0.757,1.53,1.009c1.323,0.752,3.49,1.891,3.49,4.352V35z M27,35h-4v-1.653c0-0.261-0.872-0.731-1.315-0.983   c-1.323-0.753-3.302-1.891-3.302-4.352c0-2.46,2.014-3.598,3.338-4.351c0.443-0.252,1.277-0.723,1.369-0.955   c-0.096-0.287-0.917-0.754-1.357-1.006c-1.326-0.752-3.325-1.888-3.325-4.348s1.954-3.595,3.277-4.347   C22.128,12.755,23,12.287,23,12.055v-1.938l4-0.025v1.938c0,2.459-2.014,3.595-3.34,4.347c-0.441,0.251-1.272,0.719-1.368,0.952   c0.096,0.284,0.914,0.751,1.359,1.003c1.324,0.752,3.323,1.888,3.323,4.348c0,2.461-2.001,3.6-3.327,4.352   c-0.443,0.252-1.269,0.723-1.362,0.955c0.094,0.287,0.934,0.757,1.377,1.009C24.985,29.748,27,30.886,27,33.347V35z"></path></g><g display="none"><path display="inline" fill="#C3C3C3" d="M74.492,16.563c0.725,0,1.46,0.089,2.197,0.281c1.081,0.279,2.291,0.729,3.212,1.359   c3.356,2.329,4.739,6.431,3.813,10.364c-0.241,0.992-0.648,2.006-1.158,2.88c-0.576,0.984-1.28,1.888-2.065,2.707   c-2.887,3.014-6.999,4.562-10.979,5.58c-1.117,0.28-2.469,0.588-3.857,0.588c-0.299,0-0.6-0.014-0.901-0.046L23.026,82.003   l-3.747-3.747L60.74,36.795c-0.543-1.331-0.302-2.143-0.168-3.1c0.582-4.106,1.834-8.498,4.406-11.811   C67.265,18.944,70.75,16.563,74.492,16.563 M74.492,11.122L74.492,11.122c-5.033,0-10.195,2.775-13.81,7.423   c-2.808,3.616-4.657,8.455-5.497,14.387l-0.043,0.283c-0.066,0.419-0.154,0.979-0.176,1.659L15.431,74.409l-3.847,3.849   l3.848,3.847l3.748,3.747l3.847,3.847l3.847-3.847l40.146-40.147c1.375-0.118,2.639-0.397,3.817-0.693   c3.873-0.991,9.47-2.797,13.583-7.095c1.105-1.148,2.06-2.402,2.832-3.718c0.783-1.345,1.387-2.845,1.752-4.349   c1.471-6.255-0.887-12.567-6.001-16.116c-1.71-1.17-3.636-1.817-4.954-2.157C76.895,11.275,75.697,11.122,74.492,11.122   L74.492,11.122z"></path></g><g display="none"><path display="inline" fill="#C3C3C3" d="M48.93,40.445l-5.111-5.113l1.385-1.384l5.109,5.113L48.93,40.445z M43.493,36.504   l-1.059-3.958l3.957,1.061L43.493,36.504z M52.011,29.992l-0.66-0.167c-0.31-0.078-0.615-0.142-0.935-0.193l-0.673-0.107   l0.756-4.665l0.704,0.159c0.439,0.099,0.875,0.212,1.298,0.339l0.622,0.187L52.011,29.992z M40.975,32.298l-2.929-3.451   l0.481-0.442c0.334-0.303,0.681-0.577,1.042-0.838l0.563-0.407l2.604,3.773l-0.562,0.386c-0.234,0.161-0.471,0.333-0.682,0.519   L40.975,32.298z M58.258,36.076l-0.256-0.626c-0.114-0.279-0.242-0.559-0.383-0.826l-0.316-0.604l3.834-1.995l0.32,0.581   c0.211,0.382,0.409,0.776,0.594,1.171l0.3,0.65L58.258,36.076z M38.637,36.081l-4.404-1.789l0.287-0.644   c0.186-0.415,0.399-0.802,0.629-1.202l0.324-0.566l4.113,2.14l-0.322,0.606c-0.139,0.262-0.263,0.525-0.376,0.813L38.637,36.081z    M44.885,29.976l-1.121-4.545l0.627-0.182c0.448-0.13,0.896-0.232,1.348-0.304l0.668-0.107l0.764,4.689l-0.674,0.107   c-0.32,0.052-0.644,0.103-0.95,0.179L44.885,29.976z M55.924,32.312l-0.52-0.46c-0.211-0.187-0.445-0.359-0.682-0.52l-0.561-0.387   l2.5-3.619l0.566,0.449c0.34,0.268,0.678,0.537,0.988,0.817l0.486,0.442L55.924,32.312z M67,74H31V45h36V74z M34,71h30V48H34V71z    M65.449,41H31.065l0.021-1.413c0.146-9.169,8.008-16.932,17.168-16.932c9.16,0,17.024,7.77,17.174,16.939L65.449,41z M33.898,38   h28.717c-0.836-7-7.116-12.857-14.361-12.857C41.012,25.143,34.731,31,33.898,38z M81,79.423C81,83.056,78.056,86,74.424,86H24.576   C20.944,86,18,83.056,18,79.423V20.577C18,16.944,20.944,14,24.576,14h49.848C78.056,14,81,16.944,81,20.577V79.423z M75,20.136   C75,19.508,74.492,19,73.865,19h-49.73C23.508,19,23,19.508,23,20.136v58.729C23,79.492,23.508,80,24.135,80h49.73   C74.492,80,75,79.492,75,78.864V20.136z"></path></g><g display="none"><path display="inline" fill="#C3C3C3" d="M69.46,26.756c-3.344-9.395-12.318-15.818-22.367-15.818   c-10.014,0-18.969,6.423-22.303,15.817c-7.662,1.899-13.113,8.827-13.113,17.095c0,8.144,9.674,14.357,13.674,16.56V78.23   l2.969,2.832h36.727l2.719-2.772l0.018-16.948c8.488-1.269,15.016-8.63,15.016-17.493C82.798,35.735,77.171,28.674,69.46,26.756z    M31.351,75.062v-9h30.99l-0.012,9H31.351z M65.177,56.039l-2.717,2.525l-0.078,1.499H31.351v-1.303l-1.688-2.448   c-3.184-1.547-12.424-7.159-12.424-12.462c0-6.141,4.25-11.207,10.107-12.044l2.234-1.971c2.223-8.049,9.27-13.458,17.543-13.458   c8.184,0,15.43,5.531,17.623,13.457l2.236,1.96c5.92,0.847,10.381,6.011,10.381,12.03C77.364,50.574,71.897,56.039,65.177,56.039z"></path></g><g><path fill="#C3C3C3" d="M79.721,87.98c-2.188,0-4.255-0.811-5.857-2.291L24.309,60.628l0.631-1.706   c2.997-8.105,7.641-15.34,13.805-21.505c5.85-5.847,12.669-10.331,20.274-13.328l1.729-0.682l25.321,50.077   c1.482,1.601,2.293,3.667,2.293,5.857c0.003,2.305-0.898,4.475-2.53,6.108C84.197,87.081,82.027,87.98,79.721,87.98z    M29.425,58.645l46.843,23.687l0.232,0.23c1.724,1.725,4.719,1.725,6.443,0c0.863-0.861,1.336-2.006,1.336-3.221   s-0.473-2.359-1.336-3.221l-0.232-0.231L58.799,28.595c-6.395,2.77-12.164,6.703-17.17,11.707   C36.318,45.614,32.219,51.778,29.425,58.645z M32.015,63.709l-7.655-2.828c0.335-0.91,0.695-1.815,1.076-2.712l7.511,3.195   C32.613,62.141,32.306,62.921,32.015,63.709z M35.754,55.707l-7.082-4.054c0.481-0.841,0.984-1.674,1.51-2.497l6.879,4.394   C36.605,54.261,36.17,54.98,35.754,55.707z M40.765,48.432l-6.317-5.166c0.611-0.749,1.243-1.485,1.896-2.211l6.065,5.459   C41.844,47.143,41.296,47.783,40.765,48.432z M46.903,42.063l-5.394-6.125c0.73-0.644,1.475-1.268,2.226-1.872l5.108,6.367   C48.186,40.958,47.541,41.502,46.903,42.063z M53.992,36.779l-4.319-6.925c0.826-0.517,1.665-1.012,2.513-1.484l3.978,7.126   C55.433,35.905,54.709,36.333,53.992,36.779z M61.845,32.75L58.747,25.2l0.856-0.345l2.989,7.594L61.845,32.75z M79.721,87.3   c-2.047,0-3.979-0.77-5.463-2.173L35.201,65.383l0.381-1.117c2.365-7.001,6.24-13.226,11.513-18.499   c4.942-4.946,10.749-8.672,17.251-11.076l1.137-0.42l20.021,39.607c1.406,1.484,2.176,3.415,2.176,5.463   c0.003,2.124-0.826,4.123-2.331,5.627C83.844,86.472,81.846,87.3,79.721,87.3z M38.549,64.027L75.864,82.89l0.154,0.153   c1.98,1.981,5.425,1.981,7.407,0c0.989-0.99,1.533-2.305,1.533-3.703c0-1.397-0.544-2.712-1.535-3.702l-0.154-0.154L64.158,37.678   c-5.676,2.271-10.764,5.636-15.141,10.013C44.324,52.384,40.807,57.876,38.549,64.027z M79.721,88.653   c-2.238,0-4.479-0.8-6.246-2.398L14.137,56.251l-0.307-0.308c-1.764-1.761-2.732-4.101-2.732-6.588   c0-2.488,0.969-4.828,2.732-6.589l3.846,3.848c-0.734,0.733-1.138,1.707-1.138,2.741c0,0.907,0.311,1.767,0.882,2.459   l59.252,29.961l0.307,0.308c1.514,1.512,3.973,1.512,5.484,0c0.734-0.733,1.137-1.707,1.137-2.741c0-1.034-0.402-2.006-1.137-2.74   l-0.309-0.308L52.193,17.04c-1.352-1.109-3.34-1.174-4.771-0.104l-3.258-4.358c3.682-2.753,8.91-2.38,12.161,0.87l0.308,0.308   l30,59.338c1.557,1.716,2.407,3.917,2.407,6.248c0.003,2.487-0.968,4.827-2.729,6.589C84.494,87.745,82.107,88.653,79.721,88.653z    M45.793,14.757 M44.883,21.654L39.518,10.32l4.918-2.329l5.365,11.333L44.883,21.654z M19.322,49.901L8.766,43.134l2.936-4.58   l10.557,6.767L19.322,49.901z"></path></g><g display="none"><path display="inline" fill="#C3C3C3" d="M13.458,70.037l19.257,19.257l59-59L72.458,11.037L13.458,70.037z M83.52,30.294   L32.715,81.1L21.652,70.037l2.049-2.049l4.916,4.917l2.049-2.049l-4.916-4.917l2.049-2.049l4.916,4.917l2.049-2.048l-4.917-4.917   l2.049-2.049l6.965,6.965l2.049-2.049l-6.965-6.965l2.048-2.048l4.917,4.917l2.049-2.049l-4.917-4.917L40.09,51.6l4.917,4.917   l2.048-2.048l-4.916-4.917l1.639-1.639l4.917,4.917l2.458-2.458l-4.916-4.917l2.048-2.048l4.916,4.917l2.049-2.049l-4.916-4.917   l2.049-2.049l6.965,6.965l1.639-1.639l-6.965-6.965l2.458-2.458l4.917,4.917l1.639-1.639l-4.916-4.917l2.458-2.458l4.917,4.917   l1.639-1.639l-4.917-4.917l2.049-2.049l4.917,4.917l2.458-2.458l-4.917-4.917l1.639-1.639l4.917,4.917l2.458-2.458l-4.916-4.917   l1.639-1.639L83.52,30.294z"></path></g></svg>